<svg width="213" height="74" viewBox="0 0 213 74" fill="none" xmlns="http://www.w3.org/2000/svg">
<path d="M83.1607 16.5416H85.9512V24.5402H84.5616V25.0599H88.5835V24.5402H87.1826V16.5416H89.9731V17.66H90.651V15.457H89.9731V15.8411H83.1607V15.457H82.4941V17.66H83.1607V16.5416Z" fill="#D5DAE4"/>
<path d="M94.8097 24.5409H93.7591V20.6997H99.0011V24.5409H97.9505V25.0606H101.272V24.5409H100.21V16.3615H101.272V15.8418H97.9505V16.3615H99.0011V20.0784H93.7591V16.3615H94.8097V15.8418H91.4883V16.3615H92.5277V24.5409H91.4883V25.0606H94.8097V24.5409Z" fill="#D5DAE4"/>
<path d="M108.785 23.1958H108.141V24.4273H104.706V20.6878H107.35V21.7611L107.994 21.7498V19.0045L107.35 19.0158V20.0551H104.706V16.4851H108.017V17.6713H108.649V15.457H108.005V15.8411H102.436V16.3608H103.486V24.5402H102.436V25.0599H108.785V23.1958Z" fill="#D5DAE4"/>
<path d="M122.589 15.8418H119.776V16.3615H120.827V21.6713C120.855 22.035 120.807 22.4007 120.685 22.7446C120.563 23.0884 120.37 23.4028 120.119 23.6671C119.867 23.9314 119.563 24.1397 119.225 24.2786C118.888 24.4175 118.525 24.4838 118.16 24.4731C117.803 24.4802 117.448 24.4109 117.12 24.2697C116.792 24.1285 116.497 23.9188 116.256 23.6545C116.016 23.3903 115.834 23.0776 115.724 22.7375C115.614 22.3975 115.578 22.0378 115.618 21.6826V16.3615H116.669V15.8418H113.348V16.3615H114.387V22.0103C114.398 22.4541 114.499 22.8911 114.685 23.2945C114.87 23.6979 115.136 24.0592 115.466 24.3564C115.796 24.6535 116.183 24.8803 116.604 25.0227C117.024 25.1652 117.469 25.2203 117.912 25.1849C118.588 25.1832 119.254 25.0205 119.855 24.7104C120.41 24.4214 120.867 23.9738 121.166 23.4246C121.466 22.8753 121.596 22.2492 121.538 21.6261V16.3615H122.589V15.8418Z" fill="#D5DAE4"/>
<path d="M124.702 16.8925V24.5409H123.64V25.0606H126.464V24.5409H125.402V17.8415L130.757 25.2187H131.187V16.3615H132.237V15.8418H129.424V16.3615H130.486V22.8576L125.38 15.8418H123.357V16.3615H124.318L124.702 16.8925Z" fill="#D5DAE4"/>
<path d="M136.575 24.5409H135.525V16.3615H136.575V15.8418H133.254V16.3615H134.293V24.5409H133.254V25.0606H136.575V24.5409Z" fill="#D5DAE4"/>
<path d="M141.738 25.2978H142.213L145.704 16.3615H146.404V15.8418H144.009V16.3615H144.935L142.258 23.2191L139.546 16.3615H140.857V15.8418H137.389V16.3615H138.213L141.738 25.2978Z" fill="#D5DAE4"/>
<path d="M153.589 23.1958H152.945V24.4273H149.511V20.6878H152.154V21.7611L152.787 21.7498V19.0045L152.154 19.0158V20.0551H149.511V16.4851H152.821V17.6713H153.442V15.457H152.798V15.8411H147.229V16.3608H148.279V24.5402H147.229V25.0599H153.589V23.1958Z" fill="#D5DAE4"/>
<path d="M158.244 24.5409H157.205V20.9257H158.334L160.413 24.2359C160.876 24.9702 161.023 25.0606 161.848 25.0606H163.046V24.5296H162.413C162.063 24.5296 161.848 24.3601 161.509 23.8404L159.498 20.7449C159.794 20.7235 160.083 20.6439 160.348 20.5108C160.613 20.3776 160.85 20.1935 161.044 19.969C161.238 19.7445 161.386 19.484 161.479 19.2023C161.573 18.9206 161.61 18.6232 161.588 18.3273C161.591 17.898 161.499 17.4735 161.317 17.0845C160.899 16.2259 160.187 15.8418 158.775 15.8418H154.889V16.3615H155.939V24.5409H154.889V25.0606H158.21L158.244 24.5409ZM157.205 16.4858H158.515C158.766 16.4599 159.019 16.491 159.256 16.5768C159.493 16.6626 159.707 16.8008 159.883 16.9812C160.059 17.1615 160.193 17.3793 160.273 17.6183C160.352 17.8572 160.377 18.1112 160.345 18.3611C160.366 18.608 160.335 18.8565 160.253 19.0905C160.172 19.3245 160.042 19.5389 159.873 19.7198C159.704 19.9008 159.499 20.0443 159.271 20.141C159.043 20.2378 158.797 20.2857 158.549 20.2817H157.205V16.4858Z" fill="#D5DAE4"/>
<path d="M167.464 19.9105C165.713 18.905 165.306 18.4983 165.306 17.7866C165.302 17.5851 165.34 17.3851 165.42 17.1998C165.499 17.0146 165.617 16.8484 165.765 16.7125C165.914 16.5766 166.09 16.4741 166.282 16.4119C166.474 16.3497 166.676 16.3292 166.876 16.3518C167.469 16.3641 168.039 16.5795 168.492 16.9619V17.956H169.136V15.5723H168.492V16.0242C167.987 15.7376 167.411 15.6004 166.831 15.6288C166.491 15.5995 166.148 15.6395 165.823 15.7464C165.498 15.8534 165.199 16.025 164.942 16.2509C164.685 16.4769 164.477 16.7525 164.33 17.061C164.183 17.3696 164.1 17.7048 164.086 18.0464C164.086 19.1762 164.685 19.8879 166.436 20.8143C167.95 21.5938 168.492 22.1813 168.492 22.9721C168.492 23.763 167.735 24.4408 166.617 24.4408C165.938 24.426 165.287 24.1741 164.775 23.7291V22.5993H164.12V25.1187H164.775V24.5425C165.407 24.9803 166.164 25.2022 166.933 25.1752C167.286 25.1934 167.638 25.1407 167.971 25.0203C168.303 24.8999 168.607 24.7141 168.866 24.474C169.125 24.2339 169.334 23.9443 169.479 23.6223C169.624 23.3003 169.703 22.9525 169.712 22.5993C169.712 21.5261 169.192 20.916 167.464 19.9105Z" fill="#D5DAE4"/>
<path d="M174.31 24.5409H173.259V16.3615H174.31V15.8418H170.988V16.3615H172.028V24.5409H170.988V25.0606H174.31V24.5409Z" fill="#D5DAE4"/>
<path d="M175.879 16.5416H178.67V24.5402H177.28V25.0599H181.302V24.5402H179.901V16.5416H182.692V17.66H183.37V15.457H182.692V15.8411H175.879V15.457H175.213V17.66H175.879V16.5416Z" fill="#D5DAE4"/>
<path d="M189.065 20.7336L191.742 16.3615H192.465V15.8418H189.675V16.3615H190.94L188.726 20.0219L186.32 16.3615H187.596V15.8418H184.15V16.3615H184.953L187.845 20.8127V24.5409H186.794V25.0606H190.115V24.5409H189.065V20.7336Z" fill="#D5DAE4"/>
<path d="M200.577 25.2426C201.534 25.2968 202.486 25.0624 203.309 24.5696C204.132 24.0769 204.788 23.3484 205.192 22.4786C205.596 21.6088 205.73 20.6377 205.576 19.6911C205.422 18.7444 204.987 17.8657 204.328 17.1689C203.669 16.472 202.816 15.989 201.88 15.7824C200.943 15.5758 199.966 15.6551 199.075 16.01C198.184 16.365 197.42 16.9793 196.882 17.7733C196.344 18.5673 196.057 19.5046 196.058 20.4637C196.033 21.6939 196.493 22.8844 197.338 23.7784C198.184 24.6725 199.347 25.1983 200.577 25.2426ZM200.577 16.4079C202.35 16.4079 203.649 18.1025 203.649 20.4524C203.649 22.8023 202.35 24.5195 200.565 24.5195C198.78 24.5195 197.447 22.8136 197.447 20.4524C197.447 18.0912 198.769 16.4079 200.588 16.4079H200.577Z" fill="#D5DAE4"/>
<path d="M209.218 24.5402H208.179V20.6878H210.811V21.7611L211.455 21.7498V19.0045L210.811 19.0158V20.0551H208.179V16.4851H211.489V17.6713H212.11V15.457H211.466V15.8411H205.896V16.3608H206.947V24.5402H205.896V25.0599H209.218V24.5402Z" fill="#D5DAE4"/>
<path d="M91.3065 40.9696C86.7084 38.3147 85.6577 37.2414 85.6577 35.3209C85.6577 33.0614 87.2733 31.5362 89.7814 31.5362C91.2501 31.5362 92.1764 31.8977 94.0518 33.1517V35.7615H95.7577V29.4688H94.0744V30.7906C92.7352 30.0524 91.2188 29.6967 89.691 29.7625C85.5335 29.7625 82.4492 32.4852 82.4492 36.1343C82.4492 39.162 84.0309 41.0035 88.6629 43.4325C92.6396 45.4886 94.0744 47.0364 94.0744 49.0812C94.0744 51.3972 92.0861 52.9337 89.1374 52.9337C87.5219 52.9337 86.5277 52.5722 84.2795 51.0583V48.1549H82.5509V54.7752H84.2795V53.2726C85.939 54.4093 87.9178 54.9871 89.9282 54.9221C94.0857 54.9221 97.249 51.9847 97.249 48.1436C97.2264 45.2401 95.9046 43.6246 91.3065 40.9696Z" fill="#D5DAE4"/>
<path d="M112.445 31.6131H115.789L109.937 41.2725L103.61 31.6131H106.954V30.2461H97.8711V31.6131H100.006L107.632 43.3625V53.1914H104.864V54.5471H113.62V53.1914H110.818V43.1479L117.89 31.6131H119.8V30.2461H112.445V31.6131Z" fill="#D5DAE4"/>
<path d="M132.498 30.2461H121.652V31.6131H124.409V53.1801H121.652V54.5471H132.464C135.622 54.4508 138.619 53.1284 140.819 50.8603C143.019 48.5921 144.25 45.5564 144.25 42.3966C144.25 39.2367 143.019 36.2011 140.819 33.9329C138.619 31.6648 135.622 30.3424 132.464 30.2461H132.498ZM132.057 52.7056H127.64V32.1215H132.159C137.017 32.1215 140.915 36.7196 140.915 42.4022C140.949 48.2544 137.096 52.7056 132.057 52.7056Z" fill="#D5DAE4"/>
<path d="M161.103 31.6131H163.905V48.7401L150.438 30.2461H145.105V31.6131H147.647L148.63 33.014V53.1914H145.84V54.5471H153.274V53.1914H150.472V35.5107L164.605 54.9538H165.746V31.6131H168.503V30.2461H161.103V31.6131Z" fill="#D5DAE4"/>
<path d="M186.048 52.8984H176.999V43.0356H183.947V45.8713L185.642 45.8261V38.5731L183.947 38.6183V41.3862H176.999V31.9415H185.721V35.0709H187.37V29.2188H185.675V30.2468H171V31.6138H173.757V53.1921H171V54.5478H187.743V49.656H186.048V52.8984Z" fill="#D5DAE4"/>
<path d="M204.756 30.2461V31.6131H208.111L202.259 41.2725L195.932 31.6131H199.277V30.2461H190.193V31.6131H192.329L199.943 43.3625V53.1914H197.187V54.5471H205.931V53.1914H203.14V43.1479L210.201 31.6131H212.111V30.2461H204.756Z" fill="#D5DAE4"/>
<path d="M8.40488 7.24645C7.44459 7.5063 6.73288 7.70965 6.32617 7.83392V31.2989C24.9111 28.0301 43.9239 28.0301 62.5088 31.2989V7.83392L60.43 7.24645C58.8257 6.82844 56.555 6.25226 53.8436 5.68739C47.4581 4.28669 40.9483 3.52973 34.4118 3.42788C24.0972 3.40529 13.195 5.96983 8.40488 7.24645ZM18.8212 19.2105C18.4649 19.2129 18.1208 19.341 17.8496 19.5721C17.6349 19.7189 17.5672 19.3122 17.8496 18.4423C18.132 17.5724 16.7199 17.4255 16.4487 17.7306C16.2691 17.8987 16.0574 18.0289 15.8263 18.1134C15.5952 18.1979 15.3495 18.2349 15.1038 18.2223C14.858 18.2096 14.6173 18.1476 14.3961 18.0398C14.1749 17.932 13.9778 17.7807 13.8164 17.595C13.6017 17.369 14.3135 17.4368 14.3474 17.2448C14.4392 17.0069 14.5958 16.7995 14.7993 16.646C14.8157 16.6253 14.8272 16.6012 14.8332 16.5755C14.8393 16.5498 14.8397 16.5231 14.8343 16.4973C14.8289 16.4714 14.8179 16.4471 14.8021 16.4259C14.7863 16.4048 14.766 16.3873 14.7428 16.3749C14.5026 16.2709 14.306 16.0868 14.1864 15.8539C14.0669 15.6211 14.032 15.354 14.0876 15.0982C14.0876 14.9966 13.5227 14.9627 13.7147 14.7819C14.0664 14.4661 14.5196 14.2868 14.9922 14.2765C15.4647 14.2661 15.9253 14.4254 16.2905 14.7254C16.3696 14.7254 16.5278 14.7254 16.5391 14.6237C16.5504 14.5221 16.4148 14.1153 17.0249 13.607C17.1492 13.5053 16.6747 13.0986 17.0249 13.1099C19.1375 13.6408 18.1546 15.8326 18.6178 16.2167C20.0144 17.0879 21.5761 17.661 23.2047 17.9C23.4938 17.9774 23.777 18.0756 24.052 18.1938C24.517 18.5008 25.048 18.6935 25.6016 18.7564C26.1553 18.8192 26.7159 18.7503 27.2378 18.5553C27.4977 18.4649 27.4864 18.7812 27.4073 18.8716C24.47 21.6734 22.233 20.9616 21.4422 20.4533C21.0933 20.2473 20.6834 20.1695 20.2833 20.2335C19.8832 20.2974 19.5179 20.499 19.2505 20.8035C19.1602 20.8939 19.002 20.9504 18.9342 20.7244C18.8235 20.2893 18.8842 19.8282 19.1037 19.4365C19.1602 19.267 18.9342 19.2105 18.8212 19.2105ZM26.9893 17.0527C27.3945 17 27.7674 16.8035 28.04 16.4991C28.0611 16.4784 28.0895 16.4668 28.1191 16.4668C28.1487 16.4668 28.1771 16.4784 28.1982 16.4991C28.4518 16.782 28.7947 16.9695 29.1697 17.0301C29.1697 17.0301 29.2827 17.0301 29.2375 17.2109C29.0794 17.6289 28.4806 17.482 28.1078 17.7418C28.0837 17.7557 28.0564 17.763 28.0287 17.763C28.0009 17.763 27.9736 17.7557 27.9496 17.7418C27.6333 17.4707 27.0458 17.6063 26.8198 17.1544C26.8989 17.1544 26.8989 17.064 26.9893 17.0527ZM46.8391 21.8203C46.2021 22.3302 45.3921 22.5731 44.5796 22.4981C44.4331 22.471 44.2821 22.4806 44.1402 22.5259C43.9983 22.5712 43.8698 22.651 43.7661 22.758C43.7138 22.8308 43.672 22.9107 43.6419 22.9952C43.6208 23.1105 43.6229 23.2288 43.6481 23.3433C43.6734 23.4577 43.7212 23.566 43.7887 23.6618C43.913 23.8312 43.8679 23.9442 43.6758 23.9894C43.3625 24.0472 43.0389 23.9825 42.7719 23.8086C42.5686 23.7069 42.5009 23.8086 42.4783 23.9329C42.4557 24.0572 42.546 24.4526 42.8623 24.6672C43.1787 24.8819 42.9979 24.9384 42.7381 25.0288C42.4782 25.1191 41.9473 25.0288 41.3259 24.6446C40.9644 24.4413 40.6819 24.4074 40.4447 24.6446C40.2074 24.8819 40.3091 24.961 40.4447 25.0401C40.5802 25.1191 40.8175 25.7518 40.23 26.5087C40.0266 26.7573 39.812 26.0681 39.6313 26.1472C39.3331 26.2868 38.9952 26.3168 38.6771 26.2321C38.3589 26.1474 38.0808 25.9534 37.8915 25.684C37.8915 25.6162 37.722 25.5936 37.5751 25.684C37.1684 25.9665 36.2872 26.4184 35.9483 25.684C35.9483 25.571 35.4173 25.8648 35.4173 25.684C35.4233 25.2545 35.5988 24.8448 35.9057 24.5443C36.2126 24.2437 36.6259 24.0767 37.0554 24.0798C37.1985 24.0798 37.2324 24.012 37.1571 23.8764C37.0306 23.745 36.9378 23.5849 36.8867 23.4098C36.8355 23.2347 36.8275 23.0498 36.8634 22.8709C36.9537 22.5772 36.2081 22.5094 36.5131 22.3625C38.0044 21.6169 38.8517 23.0404 39.1116 23.1986C39.644 23.2556 40.1811 23.1474 40.65 22.8887C41.1189 22.63 41.4969 22.2333 41.7326 21.7525C41.7891 21.5491 41.2807 21.4474 40.7723 21.3232C40.6819 21.3232 40.6368 21.1876 40.7723 21.052C41.9021 20.1708 42.9188 19.0298 45.0541 18.7925C45.098 18.7862 45.1428 18.7889 45.1856 18.8004C45.2285 18.8119 45.2686 18.832 45.3035 18.8595C45.3383 18.8869 45.3672 18.9212 45.3884 18.9602C45.4096 18.9992 45.4228 19.0421 45.4269 19.0863C45.4705 19.4178 45.5618 19.7412 45.698 20.0465C45.9406 20.5788 46.3043 21.0469 46.76 21.4135C46.8243 21.4571 46.8686 21.5244 46.8834 21.6006C46.8983 21.6768 46.8823 21.7558 46.8391 21.8203ZM35.8127 11.5056C35.8937 11.2167 36.0195 10.9422 36.1855 10.6922C37.3153 9.00886 39.8007 8.87329 40.5802 8.87329C40.7271 8.87329 40.8288 8.87329 40.8401 8.70383C40.8865 8.34821 41.0549 8.01974 41.3166 7.77452C41.5783 7.52931 41.917 7.38259 42.2748 7.35943C42.5477 7.32767 42.8142 7.25532 43.0657 7.14477C43.19 7.14477 43.2691 7.14477 43.2465 7.22385C43.2093 7.39543 43.1229 7.55246 42.9979 7.67576C42.2523 8.31972 42.3653 8.60215 42.4556 8.69253C42.4797 8.71179 42.5096 8.72227 42.5404 8.72227C42.5712 8.72227 42.601 8.71179 42.6251 8.69253C44.8846 6.73806 46.1838 8.03728 46.5792 8.45529C46.647 8.53437 46.6696 8.64734 46.5792 8.68124C45.054 9.02016 44.4666 10.3872 41.3485 10.1612C40.9644 10.1612 38.4225 10.0143 37.609 11.1667C37.1345 11.8332 37.4621 12.4659 38.8404 12.7709C40.3918 12.8569 41.948 12.7811 43.4837 12.545C44.6134 12.4546 49.5166 11.8445 52.0924 12.545C53.2222 12.85 54.7473 13.6747 54.4423 15.3694C54.3657 15.6872 54.2167 15.983 54.0071 16.2338C53.7974 16.4847 53.5327 16.6837 53.2335 16.8155C53.2335 16.8155 50.4091 18.8038 55.493 18.8264C57.0746 18.8264 55.493 20.1256 55.493 20.4984C55.493 20.8713 55.685 21.0294 55.9336 21.165C56.1821 21.3006 56.1256 21.391 55.9336 21.5039C55.8093 21.604 55.6665 21.6785 55.5133 21.7231C55.3601 21.7677 55.1997 21.7815 55.0411 21.7638C54.8152 21.7638 54.8152 21.9106 54.8378 22.0123C54.8604 22.114 55.1428 22.4416 55.5156 22.4868C55.7189 22.4868 55.7528 22.6676 55.5156 22.8596C55.2783 23.0517 54.7812 23.1873 54.0808 23.1647C53.3803 23.1421 52.8833 23.9442 53.2674 24.2944C53.6515 24.6446 54.0695 25.0288 53.6063 26.3958C53.4594 26.8025 53.2109 26.0116 52.9963 26.1359C52.7716 26.2395 52.5168 26.2577 52.2798 26.187C52.0427 26.1163 51.8395 25.9616 51.7083 25.7518C51.6066 25.6275 51.505 25.6275 51.4372 25.7518C51.3504 25.9283 51.2249 26.0829 51.0701 26.2043C50.9154 26.3257 50.7354 26.4107 50.5433 26.453C50.3513 26.4953 50.1521 26.4939 49.9607 26.4488C49.7692 26.4036 49.5905 26.316 49.4375 26.1924C49.1777 26.0568 48.658 26.5313 48.6241 26.3732C48.5431 26.0487 48.5648 25.707 48.6862 25.3954C48.8076 25.0838 49.0228 24.8175 49.3019 24.6333C49.3019 24.6333 49.494 24.3848 49.2342 24.3961C48.9743 24.4074 48.3529 24.2492 48.2965 23.7634C48.2965 23.6618 47.7881 23.6844 47.822 23.5488C47.9349 22.8709 49.4149 22.419 50.4317 23.063C51.4485 23.707 52.3749 21.696 51.5615 20.8035C50.9966 20.1482 47.709 21.9332 46.5905 19.6059C46.1499 18.6457 46.7035 17.8209 46.2516 17.7645C45.3999 17.6073 44.5237 17.6445 43.6884 17.8734C42.853 18.1023 42.0802 18.5169 41.4275 19.0863C40.1738 20.1119 38.6376 20.7316 37.0231 20.8627C35.4086 20.9939 33.7924 20.6304 32.3895 19.8206C32.2313 19.8206 32.0845 19.8884 32.1523 20.0465C32.2241 20.2182 32.2524 20.405 32.2347 20.5903C32.217 20.7756 32.1537 20.9536 32.0506 21.1085C31.4771 21.6946 30.7779 22.1428 30.0057 22.419C29.7586 22.4572 29.5234 22.5506 29.3174 22.6924C29.1115 22.8342 28.9402 23.0207 28.8164 23.2379C28.6926 23.4551 28.6194 23.6975 28.6024 23.9469C28.5853 24.1964 28.6247 24.4465 28.7178 24.6785C28.7178 24.848 28.7178 24.9497 28.5258 24.9158C28.1194 24.863 27.7328 24.7091 27.4013 24.4684C27.0697 24.2276 26.8038 23.9075 26.6278 23.5375C26.6278 23.4245 26.4696 23.4132 26.3341 23.5375C26.1262 23.6855 25.9841 23.9085 25.9378 24.1594C25.8914 24.4103 25.9444 24.6694 26.0855 24.8819C26.0855 24.9836 26.0855 25.0965 25.9612 25.1078C25.4076 25.1756 25.001 24.5317 24.5265 24.5769C24.2053 24.6426 23.9036 24.7818 23.6452 24.9836C23.5549 24.9836 23.5323 25.1982 23.6452 25.379C24.244 27.1866 23.2499 27.2544 23.1934 27.2205C23.1369 27.1866 23.1933 26.8816 22.8657 26.8364C22.7085 26.862 22.5477 26.8542 22.3937 26.8133C22.2398 26.7724 22.0962 26.6994 21.9725 26.5991C21.8487 26.4988 21.7475 26.3735 21.6756 26.2314C21.6037 26.0892 21.5627 25.9335 21.5552 25.7744C21.5552 25.6162 21.4649 25.571 21.3632 25.6388C20.9904 25.8987 20.0752 26.4071 19.4991 25.6388C19.42 25.5372 19.1488 25.6388 18.9907 25.7179C18.8325 25.797 18.8664 25.571 18.8777 25.5033C18.8936 25.1475 19.0075 24.8031 19.2069 24.508C19.4063 24.2129 19.6833 23.9787 20.0075 23.8312C20.143 23.7634 20.1656 23.6957 20.0075 23.6053C19.6911 23.3793 19.1489 22.8822 19.3183 22.3399C19.3183 22.2383 18.8664 22.0462 18.9793 21.9558C20.1091 21.1424 21.5665 22.4981 21.7473 22.645C21.928 22.7918 22.9674 22.8257 25.5884 21.3571C26.7201 20.7944 27.7387 20.0285 28.5936 19.0976C28.6788 18.9862 28.8048 18.9131 28.9438 18.8942C29.9908 18.94 31.0212 18.6205 31.8586 17.9904C31.9039 17.9507 31.9621 17.9288 32.0224 17.9288C32.0827 17.9288 32.1408 17.9507 32.1862 17.9904C33.6774 19.0411 34.4457 16.7364 34.762 15.7309C34.762 15.5162 34.8524 15.3468 35.0783 15.3355C40.5915 15.5953 51.0417 15.5614 51.0417 15.5614C51.0417 15.5614 52.4201 15.6744 52.341 14.8158C52.2393 13.4488 46.534 13.4714 42.2862 14.0589C40.5873 14.3705 38.841 14.3088 37.1684 13.8781C36.6516 13.7005 36.2124 13.3491 35.9256 12.8839C35.7149 12.4553 35.6745 11.9628 35.8127 11.5056ZM46.5227 10.1951C46.3004 10.2333 46.0887 10.318 45.9014 10.4436C45.4495 10.76 43.6419 11.5734 43.0431 10.6018C43.8151 10.5606 44.5561 10.2847 45.167 9.81099C45.4013 9.72779 45.6517 9.69979 45.8986 9.72918C46.1455 9.75857 46.3823 9.84457 46.5905 9.98045C46.5999 9.99641 46.6056 10.0142 46.6072 10.0327C46.6088 10.0511 46.6062 10.0697 46.5997 10.087C46.5932 10.1043 46.5829 10.12 46.5696 10.1328C46.5563 10.1456 46.5403 10.1553 46.5227 10.1612V10.1951ZM34.988 14.5559C34.8637 14.8497 34.5473 14.0024 34.4344 14.5559C34.2512 15.4191 33.9469 16.2521 33.5306 17.0301C33.0674 17.8774 32.3218 16.1037 32.0845 16.6121C31.8651 16.9821 31.5593 17.2935 31.1934 17.5198C30.8275 17.746 30.4123 17.8804 29.9832 17.9113C29.9041 17.9113 29.825 17.9113 29.9153 17.8209C30.0581 17.6879 30.1466 17.5069 30.1639 17.3125C30.1639 17.3125 30.1639 17.2335 30.2317 17.1996C30.4943 17.0747 30.724 16.8901 30.9025 16.6606C31.081 16.4311 31.2034 16.163 31.2598 15.8778C31.4219 15.2599 31.6413 14.6586 31.915 14.0815C32.5138 13.0308 31.7908 11.7429 31.915 11.4604C32.1228 11.3264 32.2938 11.1425 32.4122 10.9254C32.5306 10.7083 32.5928 10.465 32.5929 10.2177C32.5929 9.82114 32.4361 9.44066 32.1568 9.15919C31.8774 8.87773 31.4982 8.71811 31.1016 8.71513C30.8875 8.71167 30.6753 8.75544 30.48 8.8433C30.2848 8.93117 30.1113 9.06099 29.9719 9.22352C29.8346 9.36606 29.7063 9.51697 29.5877 9.67541C29.4522 9.85617 29.4748 10.1725 29.712 10.229C30.7288 10.5001 31.3953 12.7935 30.9773 13.5392C30.6452 14.1477 30.3945 14.7972 30.2317 15.4711C30.2378 15.6683 30.1731 15.8613 30.0491 16.0148C29.9251 16.1684 29.7501 16.2724 29.556 16.3079C29.3618 16.3435 29.1613 16.3082 28.9909 16.2086C28.8206 16.1089 28.6916 15.9514 28.6275 15.7648C28.9099 15.5953 29.5313 15.2225 29.5313 14.8271L29.407 13.5731C29.5255 13.5742 29.6428 13.5498 29.751 13.5014C29.8592 13.4531 29.9558 13.382 30.034 13.2931C30.1123 13.2041 30.1705 13.0993 30.2046 12.9858C30.2387 12.8723 30.248 12.7528 30.2317 12.6354L30.3673 12.5337C30.5367 12.3755 30.6497 11.9575 30.2882 12.014C29.9267 12.0705 29.1585 12.0931 28.6162 12.2513C28.5793 12.2612 28.546 12.2813 28.52 12.3092C28.494 12.3372 28.4765 12.3719 28.4693 12.4094C28.4693 12.5224 28.7744 14.0476 28.8534 14.3752V14.443H28.1191H27.3734V14.3865C27.4412 14.025 27.7802 12.5111 27.7802 12.5111C27.8018 12.4528 27.8018 12.3887 27.7802 12.3303C27.1924 12.172 26.5909 12.0698 25.9838 12.0253C25.9415 12.0172 25.8977 12.0215 25.8576 12.0375C25.8176 12.0535 25.783 12.0806 25.7579 12.1157C25.6223 12.319 25.8708 12.5563 26.0403 12.6467C26.046 12.8576 26.1324 13.0583 26.2816 13.2075C26.4308 13.3567 26.6315 13.4431 26.8425 13.4488C26.8425 13.5392 26.6956 14.7028 26.6956 14.7028C26.6956 15.1095 27.3056 15.4485 27.6107 15.6292C27.6107 15.6292 27.6107 15.6292 27.6107 15.697C27.542 15.8444 27.4339 15.9699 27.2983 16.0596C27.1627 16.1493 27.0049 16.1998 26.8425 16.2054C26.6207 16.2054 26.4081 16.1173 26.2513 15.9605C26.0945 15.8037 26.0064 15.5911 26.0064 15.3694C25.8359 14.6927 25.5816 14.0399 25.2495 13.4262C24.7976 12.658 25.4642 10.3985 26.5149 10.1273C26.5712 10.1129 26.6229 10.0843 26.665 10.0442C26.707 10.004 26.7381 9.95374 26.7551 9.89814C26.7721 9.84254 26.7745 9.78349 26.7621 9.72667C26.7497 9.66986 26.7229 9.6172 26.6843 9.57374C26.2958 9.04452 25.7162 8.68782 25.0687 8.57956C24.6702 8.57956 24.2881 8.73786 24.0063 9.01965C23.7245 9.30143 23.5661 9.68362 23.5661 10.0821C23.5661 11.0198 24.3005 11.2119 24.244 11.4378C24.0876 11.8404 24.0159 12.2709 24.0334 12.7025C24.0509 13.134 24.1572 13.5573 24.3457 13.9459C24.6187 14.5064 24.8345 15.0931 24.9896 15.697C25.0366 15.9648 25.1419 16.2191 25.2981 16.4417C25.4543 16.6642 25.6575 16.8497 25.8934 16.9849C26.1307 17.1205 26.0177 17.3012 26.1081 17.5046C26.1532 17.5845 26.2148 17.6538 26.2889 17.708C26.3906 17.787 26.2889 17.7983 26.2324 17.787C25.7755 17.7786 25.3282 17.6539 24.9328 17.4246C24.5375 17.1953 24.2071 16.869 23.9729 16.4765C23.7357 15.9681 22.9787 17.7418 22.5268 16.8945C22.1105 16.1165 21.8062 15.2836 21.623 14.4204C21.4987 13.9233 21.1937 14.7706 21.0694 14.4204C20.8343 13.8501 20.7078 13.2408 20.6966 12.6241C20.7352 11.552 21.1325 10.524 21.8248 9.70458C22.5172 8.88521 23.4646 8.32195 24.5152 8.10506C24.9332 8.00338 24.0181 7.30293 24.6169 7.33683C25.522 7.3296 26.4198 7.49843 27.2605 7.83392C27.4525 7.913 27.5655 7.56278 27.927 7.32554C27.9529 7.30538 27.9846 7.29443 28.0174 7.29443C28.0501 7.29443 28.082 7.30538 28.1078 7.32554C28.4919 7.56278 28.6275 7.9017 28.8195 7.82262C29.6543 7.49521 30.5439 7.33032 31.4406 7.33683C32.0619 7.33683 31.1242 8.00338 31.5422 8.10506C32.5928 8.32195 33.5402 8.88521 34.2325 9.70458C34.9249 10.524 35.3222 11.552 35.3608 12.6241C35.3626 13.2751 35.2359 13.9201 34.988 14.5221V14.5559ZM30.7514 9.73191C30.7383 9.71173 30.7313 9.68819 30.7313 9.66412C30.7313 9.64006 30.7383 9.6165 30.7514 9.59633C30.8674 9.51531 31.0054 9.47193 31.1468 9.47206C31.2343 9.47206 31.321 9.4893 31.4019 9.5228C31.4827 9.5563 31.5562 9.6054 31.6181 9.66729C31.68 9.72919 31.7291 9.80267 31.7626 9.88354C31.7961 9.96441 31.8134 10.0511 31.8134 10.1386C31.8126 10.2365 31.7898 10.333 31.7468 10.421C31.7038 10.509 31.6416 10.5862 31.5648 10.647C31.5648 10.647 31.4519 10.647 31.4406 10.647C31.2741 10.2892 31.0401 9.96698 30.7514 9.69801V9.73191ZM24.7411 10.647C24.7216 10.6617 24.6978 10.6696 24.6733 10.6696C24.6489 10.6696 24.6251 10.6617 24.6056 10.647C24.5297 10.583 24.4682 10.5035 24.4254 10.4139C24.3825 10.3243 24.3592 10.2266 24.357 10.1273C24.3555 10.0394 24.3717 9.95201 24.4046 9.87044C24.4376 9.78888 24.4866 9.71478 24.5488 9.65258C24.611 9.59038 24.6851 9.54135 24.7666 9.50839C24.8482 9.47543 24.9356 9.45924 25.0236 9.46077C25.1953 9.46017 25.3608 9.52477 25.4867 9.64152C25.4867 9.64152 25.4867 9.7658 25.4867 9.7884C25.1988 10.025 24.9476 10.3029 24.7411 10.6131V10.647Z" fill="#D5DAE4"/>
<path d="M41.79 44.6641H36.3672V45.4888H41.79V44.6641Z" fill="#D5DAE4"/>
<path d="M41.79 46.8984H36.3672V47.7232H41.79V46.8984Z" fill="#D5DAE4"/>
<path d="M41.0895 30.2472C38.83 30.1342 36.6383 30.0664 34.4127 30.0664C32.1871 30.0664 29.9614 30.1342 27.7584 30.2359V41.2058H6.76758C7.62992 46.3886 9.72193 51.2893 12.8683 55.4971C13.077 55.1963 13.3557 54.9506 13.6804 54.7814C14.0051 54.6121 14.3662 54.5243 14.7324 54.5256H27.7584V65.936C29.9256 66.5357 32.164 66.8398 34.4127 66.8399V66.9302V66.8625C36.6656 66.8586 38.9076 66.5508 41.0782 65.9474V54.5256H54.1043C54.4675 54.5249 54.8256 54.6118 55.1482 54.779C55.4707 54.9461 55.7482 55.1886 55.9571 55.4858C59.1016 51.2824 61.1899 46.3849 62.0464 41.2058H41.0895V30.2472ZM30.5715 33.6364L33.4072 34.9808L34.424 32.0435L35.4746 35.0034L38.2764 33.6364L36.9207 36.4721L39.8694 37.4889L36.9094 38.5396L38.2764 41.3413L35.4407 39.9969L34.424 42.9343L33.362 39.9743L30.5715 41.3413L31.9159 38.4944L28.9786 37.4889L31.9385 36.4382L30.5715 33.6364ZM20.6523 51.7125L17.8505 50.3568L16.7998 53.3054L15.7831 50.3681L12.9361 51.7125L14.3143 48.922L11.3544 47.86L14.2918 46.8545L12.9474 44.0076L15.7378 45.3746L16.7998 42.4146L17.8053 45.3972L20.6523 44.0527L19.2853 46.8545L22.2452 47.9052L19.3079 48.922L20.6523 51.7125ZM25.1713 51.5091H23.9398V50.6053H25.1713V51.5091ZM25.1713 49.0914H23.9398V48.1876H25.1713V49.0914ZM25.1713 46.6738H23.9398V45.77H25.1713V46.6738ZM25.1713 44.2561H23.9398V43.3523H25.1713V44.2561ZM25.8265 51.5091V42.7987H31.3623C31.4712 42.7875 31.581 42.7875 31.6899 42.7987C31.9842 42.7864 32.278 42.8342 32.5532 42.9391C32.8284 43.044 33.0793 43.2039 33.2907 43.409C33.5021 43.614 33.6696 43.86 33.7828 44.1319C33.8961 44.4038 33.9528 44.6959 33.9494 44.9904V52.2999C33.7385 52.0534 33.477 51.8551 33.1827 51.7186C32.8883 51.5822 32.568 51.5107 32.2436 51.5091H25.8265ZM38.2538 62.8857L35.4069 61.53L34.4014 64.4787L33.3394 61.5187L30.5489 62.8857L31.8933 60.0388L28.9559 59.022L31.9159 57.9713L30.5489 55.1808L33.3846 56.5252L34.4014 53.5766L35.452 56.5365L38.2538 55.1808L36.9094 58.0165L39.8468 59.022L36.8868 60.0839L38.2538 62.8857ZM48.1617 44.0076L51.0087 45.352L52.0142 42.4146L53.0761 45.3746L55.8667 44.0076L54.5223 46.8545L57.4596 47.86L54.4996 48.922L55.8667 51.7125L53.0197 50.3681L52.0142 53.3054L50.9523 50.3568L48.1617 51.7125L49.5061 48.8768L46.5688 47.86L49.5288 46.8093L48.1617 44.0076ZM43.6427 43.3523H44.9194V44.2561H43.6767L43.6427 43.3523ZM43.6427 45.77H44.9194V46.6738H43.6767L43.6427 45.77ZM43.6427 48.1876H44.9194V49.0914H43.6767L43.6427 48.1876ZM43.6427 50.6053H44.9194V51.5091H43.6767L43.6427 50.6053ZM42.9988 42.7987V51.5091H36.6496C36.3251 51.5107 36.0048 51.5822 35.7105 51.7186C35.4161 51.8551 35.1545 52.0534 34.9436 52.2999V44.9904C34.9403 44.6959 34.997 44.4038 35.1103 44.1319C35.2235 43.86 35.3909 43.614 35.6023 43.409C35.8138 43.2039 36.0647 43.044 36.3399 42.9391C36.6152 42.8342 36.9088 42.7864 37.2031 42.7987C37.3158 42.7874 37.4293 42.7874 37.542 42.7987H42.9988Z" fill="#D5DAE4"/>
<path d="M41.79 49.1582H36.3672V49.9829H41.79V49.1582Z" fill="#D5DAE4"/>
<path d="M34.4236 0.00322715C22.8122 0.221255 11.2634 1.76009 0 4.59002V27.5353C0 48.2211 14.8111 69.7203 34.4123 73.4372C54.7478 69.4604 68.8471 48.2211 68.8471 27.5353V4.59002C57.6426 1.46344 46.0559 -0.080448 34.4236 0.00322715ZM63.2888 6.78174L63.7181 6.91732V35.9068C63.7181 52.7514 50.918 68.0369 34.4236 68.0595C17.9179 68.0595 5.11781 52.7514 5.11781 35.9068V6.9851L5.54712 6.84953C5.54712 6.84953 20.426 2.25144 34.4236 2.24014C48.4212 2.22884 63.2888 6.79304 63.2888 6.79304V6.78174Z" fill="#D5DAE4"/>
<path d="M32.4575 46.9102H27.0234V47.7349H32.4575V46.9102Z" fill="#D5DAE4"/>
<path d="M32.4575 44.6641H27.0234V45.4888H32.4575V44.6641Z" fill="#D5DAE4"/>
<path d="M32.4575 49.1582H27.0234V49.9829H32.4575V49.1582Z" fill="#D5DAE4"/>
</svg>
